<svg width="21" height="21" viewBox="0 0 21 21" fill="none" xmlns="http://www.w3.org/2000/svg">
<path d="M17.6452 9.00468C17.3872 8.88994 14.9723 7.8149 14.7135 7.70016C13.4991 7.15956 12.0767 7.70632 11.5369 8.91997L18.865 12.1813C19.4056 10.9669 18.8589 9.54451 17.6452 9.00468ZM19.4164 1.07743C19.0114 0.897227 18.5809 0.943432 18.4492 1.19063L14.9406 7.8011L17.3079 8.85381L19.9801 1.87138C20.0756 1.60802 19.8215 1.25763 19.4164 1.07743Z" stroke="#B2B7C1" stroke-width="1.4" stroke-linecap="round" stroke-linejoin="round"/>
<path d="M17.677 13.2178C16.1731 17.7967 14.2263 20.167 14.2263 20.167C14.2263 20.167 7.52116 19.9237 3.17172 14.5546C4.06964 14.6186 9.66739 14.1373 11.5957 10.4185" stroke="#B2B7C1" stroke-width="1.4" stroke-linecap="round" stroke-linejoin="round"/>
<path d="M5.77078 17.0255C5.77078 17.0255 7.89466 16.7455 9.03439 15.5549C8.12261 17.2268 7.0368 17.861 7.0368 17.861L5.77078 17.0255ZM8.76485 18.6996C8.76485 18.6996 10.4352 18.7184 13.2768 16.1009C12.2549 18.4312 10.9223 19.5622 10.9223 19.5622L8.76485 18.6996Z" stroke="#B2B7C1" stroke-width="1.4" stroke-linecap="round" stroke-linejoin="round"/>
<path d="M1.20341 8.04437C1.2714 8.0162 1.34428 8.00171 1.41787 8.00171C1.49146 8.00171 1.56433 8.0162 1.63232 8.04437C1.70032 8.07253 1.76209 8.11381 1.81413 8.16585C1.86617 8.21788 1.90745 8.27966 1.93561 8.34765C1.96377 8.41564 1.97827 8.48852 1.97827 8.56211C1.97827 8.6357 1.96377 8.70858 1.93561 8.77657C1.90745 8.84456 1.86617 8.90634 1.81413 8.95837C1.76209 9.01041 1.70032 9.05169 1.63232 9.07985C1.56433 9.10802 1.49146 9.12251 1.41787 9.12251C1.34428 9.12251 1.2714 9.10802 1.20341 9.07985C1.13542 9.05169 1.07364 9.01041 1.02161 8.95837C0.969567 8.90634 0.928288 8.84456 0.900126 8.77657C0.871963 8.70858 0.857468 8.6357 0.857468 8.56211C0.857468 8.48852 0.871963 8.41564 0.900126 8.34765C0.928288 8.27966 0.969567 8.21788 1.02161 8.16585C1.07364 8.11381 1.13542 8.07253 1.20341 8.04437Z" fill="#B2B7C1"/>
<path d="M2.8349 8.48473C2.90496 8.41467 2.99999 8.37531 3.09907 8.37531C3.19816 8.37531 3.29318 8.41467 3.36325 8.48473C3.43331 8.5548 3.47267 8.64983 3.47267 8.74891C3.47267 8.848 3.43331 8.94302 3.36325 9.01309C3.29318 9.08315 3.19816 9.12251 3.09907 9.12251C2.99999 9.12251 2.90496 9.08315 2.8349 9.01309C2.76483 8.94302 2.72547 8.848 2.72547 8.74891C2.72547 8.64983 2.76483 8.5548 2.8349 8.48473Z" fill="#B2B7C1"/>
<path d="M2.25183 10.1433C2.42699 9.96812 2.66456 9.86971 2.91227 9.86971C3.15998 9.86971 3.39755 9.96812 3.57271 10.1433C3.74787 10.3184 3.84627 10.556 3.84627 10.8037C3.84627 11.0514 3.74787 11.289 3.57271 11.4642C3.39755 11.6393 3.15998 11.7377 2.91227 11.7377C2.66456 11.7377 2.42699 11.6393 2.25183 11.4642C2.07667 11.289 1.97827 11.0514 1.97827 10.8037C1.97827 10.556 2.07667 10.3184 2.25183 10.1433Z" fill="#B2B7C1"/>
</svg>
