<svg width="84" height="31" viewBox="0 0 84 31" fill="none" xmlns="http://www.w3.org/2000/svg">
<path d="M55.6614 0L58.6536 1.23529L82.7556 28.5765C83.5516 29.4824 82.9203 30.9098 81.7124 30.9098H28.4575L55.6614 0Z" fill="#2044A0"/>
<path d="M26.8931 30.8824H37.2421L58.7637 6.45098C60.9872 3.95294 59.2029 0 55.8538 0C54.7284 0 53.6852 0.466667 52.944 1.31765L26.8931 30.8824Z" fill="#C7DAFF"/>
<path d="M27.9363 0L30.9285 1.23529L57.0618 30.8824H0.732422L27.9363 0Z" fill="#3366FF"/>
<path d="M0.704741 30.8824H9.51651L31.0381 6.45098C33.2342 3.95294 31.4498 0 28.1008 0C26.9753 0 25.9322 0.466667 25.191 1.31765L0.183174 29.7294C-0.228591 30.1686 0.100819 30.8824 0.704741 30.8824Z" fill="#C7DAFF"/>
</svg>
