<svg width="173" height="24" viewBox="0 0 173 24" fill="none" xmlns="http://www.w3.org/2000/svg">
<path d="M40.3054 1.44824L42.472 2.34273L59.9246 22.1408C60.501 22.7968 60.0439 23.8304 59.1692 23.8304H20.6067L40.3054 1.44824Z" fill="#2044A0"/>
<path d="M19.4736 23.8105H26.9675L42.5515 6.11948C44.1616 4.31062 42.8696 1.44824 40.4445 1.44824C39.6295 1.44824 38.8742 1.78616 38.3375 2.40237L19.4736 23.8105Z" fill="#C7DAFF"/>
<path d="M20.229 1.44824L22.3956 2.34273L41.3191 23.8105H0.530273L20.229 1.44824Z" fill="#3366FF"/>
<path d="M0.510312 23.8105H6.89102L22.4751 6.11948C24.0653 4.31062 22.7732 1.44824 20.3482 1.44824C19.5332 1.44824 18.7778 1.78616 18.2411 2.40237L0.132638 22.9757C-0.165526 23.2937 0.0730042 23.8105 0.510312 23.8105Z" fill="#C7DAFF"/>
<path d="M84.3824 5.6055L80.9634 12.7018H78.7371L75.2784 5.58562L74.2647 14.292H71.3625L73.0919 0.258423H75.4971L79.8304 9.46175L84.124 0.258423H86.5689L88.2784 14.292H85.3961L84.3824 5.6055Z" fill="#28293D"/>
<path d="M74.1346 17.9087H71.6929V23.8957H72.9007V21.8015H74.1346C75.4901 21.8015 76.0897 20.8457 76.0897 19.8638C76.0897 18.8906 75.4901 17.9087 74.1346 17.9087ZM74.0738 20.7414H72.9007V18.9775H74.0911C74.6559 18.9775 74.8732 19.4294 74.8732 19.8638C74.8732 20.2896 74.6559 20.7414 74.0738 20.7414Z" fill="#00AE69"/>
<path d="M78.6805 21.7494L80.1056 23.8957H81.522L79.9666 21.6886C80.9745 21.48 81.4177 20.7154 81.4177 19.8638C81.4177 18.8906 80.8268 17.9087 79.4539 17.9087H77.0643V23.8957H78.2721V21.7494H78.6805ZM78.2721 20.7762V18.9775H79.3322C79.897 18.9775 80.2012 19.4033 80.2012 19.8899C80.2012 20.3678 79.9231 20.7762 79.2367 20.7762H78.2721Z" fill="#00AE69"/>
<path d="M85.2394 24C86.9338 24 88.2893 22.6097 88.2893 20.9065C88.2893 19.2034 86.9338 17.8044 85.2394 17.8044C83.5363 17.8044 82.1981 19.2034 82.1981 20.9065C82.1981 22.6097 83.5363 24 85.2394 24ZM85.2394 22.8616C84.1619 22.8616 83.4059 21.984 83.4059 20.9065C83.4059 19.8291 84.1619 18.9427 85.2394 18.9427C86.3168 18.9427 87.0728 19.8291 87.0728 20.9065C87.0728 21.984 86.3168 22.8616 85.2394 22.8616Z" fill="#00AE69"/>
<path d="M99.9466 14.292H90.9619V0.258423H99.7677V2.763H93.8044V6.10244H99.0322V8.64677H93.8044V11.7874H99.9665V14.292H99.9466Z" fill="#28293D"/>
<path d="M108.057 2.763V14.292H105.234V2.763H101.358V0.258423H111.933V2.763H108.057Z" fill="#28293D"/>
<path d="M113.086 10.2171H115.908C115.928 11.211 116.902 12.0458 118.214 12.0458C119.506 12.0458 120.321 11.3501 120.321 10.3562C120.321 9.60088 119.725 9.02443 118.552 8.66663L116.843 8.16969C113.762 7.35471 113.225 5.48622 113.225 4.23393C113.225 1.70947 115.391 0 118.075 0C120.739 0 122.766 1.61009 122.766 4.27368H119.943C119.943 3.2798 119.248 2.50458 118.035 2.50458C116.922 2.50458 116.107 3.22017 116.107 4.1743C116.107 4.53209 116.206 5.22781 117.677 5.66512L119.248 6.1223C121.375 6.71863 123.223 7.8119 123.223 10.2171C123.223 12.9801 120.838 14.5305 118.194 14.5305C115.153 14.5305 113.086 12.6819 113.086 10.2171Z" fill="#28293D"/>
<path d="M134.712 14.292H125.728V0.258423H134.534V2.763H128.57V6.10244H133.798V8.64677H128.57V11.7874H134.732V14.292H134.712Z" fill="#28293D"/>
<path d="M147.911 14.292H145.367L140.278 5.48623V14.292H137.456V0.258423H140.079L145.089 8.96481V0.258423H147.911V14.292Z" fill="#28293D"/>
<path d="M153.656 10.9327L152.543 14.292H149.521L154.749 0.258423H157.81L163.018 14.292H160.036L158.903 10.9327H153.656ZM156.26 3.20031L154.491 8.46787H158.049L156.26 3.20031Z" fill="#28293D"/>
<path d="M168.862 2.763V14.292H166.039V2.763H162.163V0.258423H172.738V2.763H168.862Z" fill="#28293D"/>
</svg>
